<?xml version="1.0" encoding="iso-8859-1"?>
<!-- Generator: Adobe Illustrator 19.0.0, SVG Export Plug-In . SVG Version: 6.00 Build 0)  -->
<svg version="1.1" id="Capa_1" xmlns="http://www.w3.org/2000/svg" xmlns:xlink="http://www.w3.org/1999/xlink" x="0px" y="0px"
	 viewBox="0 0 512 512" style="enable-background:new 0 0 512 512;" xml:space="preserve">
<g>
	<g>
		<path d="M266.85,211c-24.813,0-45,20.187-45,45s20.187,45,45,45s45-20.187,45-45S291.663,211,266.85,211z M266.85,271
			c-8.271,0-15-6.729-15-15s6.729-15,15-15s15,6.729,15,15S275.121,271,266.85,271z"/>
	</g>
</g>
<g>
	<g>
		<path d="M457.223,276.209c-5.535-6.727-11.596-13.476-18.114-20.209c6.518-6.733,12.579-13.482,18.114-20.209
			c35.017-42.563,45.835-80.666,30.464-107.291c-15.372-26.625-53.781-36.307-108.148-27.263
			c-8.523,1.417-17.324,3.274-26.336,5.527c-2.953-10.509-6.232-20.443-9.815-29.703c8.303-8.168,13.463-19.521,13.463-32.061
			c0-24.813-20.187-45-45-45c-7.887,0-15.303,2.046-21.756,5.626C282.584,1.892,274.802,0,266.85,0
			c-30.734,0-58.326,28.608-77.694,80.554c-3.094,8.299-5.939,17.072-8.534,26.24c-9.055-2.267-17.897-4.133-26.459-5.557
			c-54.369-9.043-92.777,0.639-108.148,27.263c-15.372,26.625-4.553,64.728,30.464,107.291c5.538,6.732,11.604,13.485,18.127,20.223
			c-7.351,7.58-14.078,15.158-20.125,22.673c-11.225-3.105-23.636-1.898-34.494,4.371c-21.489,12.407-28.878,39.982-16.471,61.471
			c3.942,6.828,9.426,12.211,15.749,16.009c0.519,8.378,2.772,16.07,6.751,22.962c19.361,33.535,69.856,33.633,108.148,27.263
			c8.562-1.424,17.404-3.291,26.459-5.557c2.596,9.167,5.44,17.941,8.534,26.24C208.524,483.392,236.116,512,266.85,512
			s58.326-28.608,77.694-80.554c3.096-8.304,5.942-17.083,8.54-26.258c10.197,2.563,20.081,4.589,29.576,6.064
			c0.032,0.122,0.056,0.245,0.089,0.366c3.111,11.61,10.557,21.314,20.967,27.325c21.517,12.421,49.082,4.988,61.471-16.472
			c3.874-6.709,5.902-14.132,6.03-21.67c6.978-4.634,12.498-10.422,16.47-17.301C503.059,356.875,492.24,318.772,457.223,276.209z
			 M71.994,143.5c8.417-14.578,37.294-19.316,77.245-12.669c7.84,1.304,15.949,3.016,24.265,5.098
			c-4.009,19.223-7.029,39.72-8.988,61.043c-17.454,12.366-33.669,25.242-48.255,38.296c-5.987-6.185-11.547-12.375-16.616-18.537
			C73.914,185.455,63.578,158.079,71.994,143.5z M162.156,276.017c-8.484-6.584-16.552-13.265-24.15-20
			c7.595-6.725,15.658-13.41,24.149-20.001C161.749,249.527,161.749,262.501,162.156,276.017z M49.494,329.529
			c-4.135-7.163-1.672-16.355,5.491-20.491c7.167-4.137,16.357-1.668,20.49,5.491c4.145,7.179,1.69,16.345-5.49,20.49
			C62.822,339.156,53.63,336.692,49.494,329.529z M149.239,381.169c-39.95,6.646-68.828,1.91-77.245-12.669
			c-0.419-0.726-0.774-1.488-1.1-2.269c4.833-0.915,9.596-2.636,14.091-5.231c10.41-6.01,17.855-15.714,20.967-27.324
			c3.111-11.611,1.514-23.738-4.496-34.147c-0.725-1.256-1.507-2.46-2.332-3.619c5.175-6.339,10.889-12.736,17.102-19.146
			c14.601,13.079,30.816,25.943,48.294,38.306c1.959,21.309,4.978,41.791,8.985,61.002
			C165.188,378.153,157.08,379.865,149.239,381.169z M336.598,175.382c-11.231-6.946-22.502-13.479-34.736-20.058
			c9.997-4.077,19.87-7.741,29.551-10.966C333.418,154.329,335.154,164.693,336.598,175.382z M311.85,30c8.271,0,15,6.729,15,15
			s-6.729,15-15,15s-15-6.729-15-15S303.579,30,311.85,30z M217.265,91.035C231.515,52.817,250.051,30,266.85,30
			c0.839,0,1.679,0.074,2.519,0.182c-1.625,4.644-2.519,9.627-2.519,14.818c0,26.359,22.73,47.32,49.297,44.79
			c2.999,7.916,5.763,16.373,8.274,25.303c-18.705,6.12-38.038,13.76-57.571,22.755c-19.481-8.972-38.765-16.595-57.423-22.706
			C211.815,106.708,214.427,98.647,217.265,91.035z M202.37,144.385c9.655,3.219,19.499,6.874,29.468,10.938
			c-11.899,6.401-23.289,12.975-34.693,20.034C198.599,164.704,200.345,154.357,202.37,144.385z M197.145,336.644
			c11.522,7.125,22.89,13.689,34.695,20.031c-9.969,4.066-19.814,7.721-29.47,10.939
			C200.344,357.643,198.599,347.297,197.145,336.644z M316.435,420.965C302.185,459.183,283.649,482,266.85,482
			c-16.799,0-35.335-22.817-49.585-61.035c-2.838-7.613-5.45-15.673-7.838-24.107c18.671-6.115,37.967-13.744,57.461-22.724
			c19.472,8.95,38.768,16.567,57.399,22.678C321.895,405.263,319.279,413.339,316.435,420.965z M331.335,367.59
			c-9.637-3.219-19.474-6.865-29.445-10.929c11.911-6.407,23.151-12.896,34.665-20.016
			C335.102,347.289,333.358,357.626,331.335,367.59z M340.423,298.471c-22.986,15.444-47.944,29.919-73.554,42.469
			c-24.609-12.042-49.578-26.335-73.59-42.468c-1.888-27.818-1.92-56.646-0.001-84.923c24.004-16.148,48.995-30.455,73.573-42.498
			c24.769,12.136,49.804,26.507,73.576,42.479C342.326,241.659,342.328,270.415,340.423,298.471z M384.461,130.831
			c39.951-6.646,68.827-1.91,77.245,12.669c8.417,14.579-1.92,41.955-27.65,73.231c-5.06,6.15-10.609,12.329-16.584,18.502
			c-14.6-13.077-30.813-25.94-48.29-38.302c-1.954-21.338-4.959-41.844-8.923-61.019
			C368.554,133.838,376.641,132.131,384.461,130.831z M371.547,235.985c8.49,6.589,16.564,13.275,24.167,20.015
			c-7.604,6.74-15.678,13.427-24.169,20.017C371.941,262.842,371.962,249.742,371.547,235.985z M439.206,407.471
			c-4.136,7.163-13.328,9.627-20.49,5.491c-7.163-4.136-9.626-13.328-5.491-20.491c4.135-7.162,13.325-9.626,20.49-5.491
			C440.895,391.125,443.352,400.291,439.206,407.471z M460.304,370.571c-3.255-3.768-7.149-7.008-11.589-9.571
			c-22.765-13.143-52.288-4.05-63.444,20.3c-8.06-1.31-16.437-3.056-25.075-5.225c4.007-19.212,7.026-39.696,8.985-61.006
			c17.477-12.362,33.691-25.226,48.291-38.303c5.974,6.173,11.524,12.352,16.584,18.502
			C449.438,313.967,474.865,351.43,460.304,370.571z"/>
	</g>
</g>
<g>
</g>
<g>
</g>
<g>
</g>
<g>
</g>
<g>
</g>
<g>
</g>
<g>
</g>
<g>
</g>
<g>
</g>
<g>
</g>
<g>
</g>
<g>
</g>
<g>
</g>
<g>
</g>
<g>
</g>
</svg>
